<svg width="164" height="172" viewBox="0 0 164 172" fill="none" xmlns="http://www.w3.org/2000/svg">
<path fill-rule="evenodd" clip-rule="evenodd" d="M155.053 60.5C155.053 89.4949 131.548 113 102.553 113C73.5585 113 50.0534 89.4949 50.0534 60.5C50.0534 31.5051 73.5585 8 102.553 8C131.548 8 155.053 31.5051 155.053 60.5ZM163.053 60.5C163.053 93.9132 135.967 121 102.553 121C69.1402 121 42.0534 93.9132 42.0534 60.5C42.0534 27.0868 69.1402 0 102.553 0C135.967 0 163.053 27.0868 163.053 60.5ZM10.2772 163.011C21.4762 173.27 37.447 174.063 45.9489 164.782C47.3407 163.263 48.4461 161.568 49.2723 159.75C59.1575 146.938 66.0496 127.82 68.5534 118.5C58.1534 113.3 52.5534 105 51.0534 101.5C37.2267 106.109 20.4959 116.267 11.2806 123.272C9.08558 124.327 7.09084 125.778 5.3937 127.63C-3.10822 136.911 -0.921796 152.751 10.2772 163.011ZM132 36C132 32.6863 129.314 30 126 30H78C74.6863 30 72 32.6863 72 36V84C72 87.3137 74.6863 90 78 90H126C129.314 90 132 87.3137 132 84V36ZM78 26C72.4772 26 68 30.4772 68 36V84C68 89.5228 72.4772 94 78 94H126C131.523 94 136 89.5228 136 84V36C136 30.4772 131.523 26 126 26H78ZM95 53V37H79V53H95ZM79 35H77V37V53V55H79H95H97V53V37V35H95H79ZM92 50V40H82V50H92ZM125 53V37H109V53H125ZM109 35H107V37V53V55H109H125H127V53V37V35H125H109ZM122 50V40H112V50H122ZM95 84V68H79V84H95ZM79 66H77V68V84V86H79H95H97V84V68V66H95H79ZM92 81V71H82V81H92Z" fill="black"/>
</svg>
